:SAMPLES-PER-SECOND 30
:FULLY-SPECIFIED
:DEGREES
219
root  52.59 35.7397 0.950354 132.759 -85.8683 -120.891
RightUpLeg  -48.1774 -13.2655 7.19229
RightLeg  44.9005 -3.45323 -4.00309
RightFoot  -9.81483 -0.0680247 0.119941
RightToes  0.000482159 0.542163 -0.142577
Spine  54.3026 -1.33437 7.27471
Spine1  -8.11274 2.13675 -3.92743
HEad  -36.1839 -0.123992 -2.91476
LeftShoulder1  10.5957 -17.8421 -43.1497
LeftArm  -10.5581 6.79171 -24.7731
LeftForeArm  34.8889 -39.5676 -7.04838
LeftHand  -0.25398 0.0180481 5.50724
RightShoulder  4.35266 11.3398 23.1057
RightArm  -14.9195 20.4065 35.9294
RightForeArm  3.2824 41.0247 9.54011
RightHand  -3.30653 9.63616 -25.5758
LeftUpLeg  -51.8343 4.88834 -1.05233
LeftLeg  44.6969 9.24876 10.0648
LeftFoot  -8.21356 -0.0134825 2.30129
LeftToes  1.06246e-005 4.65855e-005 -8.18503e-006
220
root  51.6822 36.5416 1.08027 127.133 -85.869 -116.307
RightUpLeg  -42.9276 -14.2451 6.41484
RightLeg  40.6997 -2.98573 -3.03831
RightFoot  -9.75098 -0.0866432 1.46563
RightToes  0.000482159 0.542163 -0.142577
Spine  52.8556 -1.2533 7.34529
Spine1  -7.98992 2.28579 -3.98857
HEad  -33.791 -0.204142 -3.08793
LeftShoulder1  10.7318 -17.6962 -44.0568
LeftArm  -8.84059 8.76288 -24.9172
LeftForeArm  33.8001 -36.8711 -6.36194
LeftHand  -0.25398 0.0180481 5.50724
RightShoulder  4.35649 11.2012 23.426
RightArm  -13.8614 20.4876 35.7841
RightForeArm  7.33362 46.0339 11.1152
RightHand  -3.09925 8.97136 -25.1006
LeftUpLeg  -46.8712 4.99517 -0.850869
LeftLeg  41.0834 9.63264 9.26369
LeftFoot  -8.54171 0.0150092 1.47938
LeftToes  1.06246e-005 4.65855e-005 -8.18503e-006
221
root  50.7264 37.2429 1.2059 123.211 -85.9619 -113.819
RightUpLeg  -37.464 -14.9014 5.26763
RightLeg  36.9662 -2.86778 -2.58204
RightFoot  -9.57237 -0.0981755 2.1625
RightToes  0.000482159 0.542163 -0.142577
Spine  51.1402 -1.12611 7.11268
Spine1  -7.53417 2.36147 -4.15538
HEad  -31.3506 -0.186992 -3.13093
LeftShoulder1  10.757 -17.4648 -44.6792
LeftArm  -6.98097 10.8422 -25.0013
LeftForeArm  33.0594 -33.9551 -5.64852
LeftHand  -0.25398 0.0180481 5.50724
RightShoulder  4.37147 11.0381 23.8852
RightArm  -12.3415 20.1973 36.0231
RightForeArm  10.2442 49.8738 12.5698
RightHand  -3.02009 8.76237 -24.8355
LeftUpLeg  -41.6079 5.11027 -0.767192
LeftLeg  37.6992 9.92278 8.49682
LeftFoot  -9.02888 0.0387095 0.776356
LeftToes  1.06246e-005 4.65855e-005 -8.18503e-006
222
root  49.722 37.834 1.32219 117.651 -86.2674 -110.013
RightUpLeg  -31.8997 -15.44 3.86254
RightLeg  33.7554 -3.091 -2.47645
RightFoot  -9.4978 -0.0955471 1.96321
RightToes  0.000482159 0.542163 -0.142577
Spine  49.2163 -1.01763 6.67508
Spine1  -6.87225 2.302 -4.26049
HEad  -28.7369 -0.0371919 -3.11413
LeftShoulder1  10.7648 -17.2502 -45.1975
LeftArm  -4.85445 13.0866 -24.8004
LeftForeArm  32.452 -31.1934 -5.01294
LeftHand  -0.25398 0.0180481 5.50724
RightShoulder  4.38509 10.885 24.3219
RightArm  -10.2992 19.2488 36.7196
RightForeArm  10.6873 52.0824 13.6347
RightHand  -3.24791 9.4668 -25.4057
LeftUpLeg  -36.1727 5.01365 -0.8444
LeftLeg  34.5899 10.151 7.79993
LeftFoot  -9.48875 0.0467683 0.644622
LeftToes  1.06246e-005 4.65855e-005 -8.18503e-006
223
root  48.6822 38.3072 1.43566 106.891 -86.6849 -101.263
RightUpLeg  -26.4763 -15.7893 2.23488
RightLeg  31.3397 -3.53559 -2.56141
RightFoot  -9.2457 -0.11156 2.62508
RightToes  0.000482159 0.542163 -0.142577
Spine  47.2446 -0.977425 6.25807
Spine1  -6.32356 2.15717 -4.28163
HEad  -25.6045 0.121627 -3.09297
LeftShoulder1  10.8109 -17.0871 -45.7735
LeftArm  -2.26114 15.3937 -24.2587
LeftForeArm  31.9787 -28.7542 -4.48008
LeftHand  -0.25398 0.0180481 5.50724
RightShoulder  4.38249 10.7086 24.7006
RightArm  -7.72618 17.453 37.6584
RightForeArm  8.6928 52.461 14.0073
RightHand  -3.78951 10.9138 -26.9411
LeftUpLeg  -30.7444 4.91737 -1.04169
LeftLeg  31.897 10.1309 7.08099
LeftFoot  -9.92527 0.0485474 0.899473
LeftToes  1.06246e-005 4.65855e-005 -8.18503e-006
224
root  47.6355 38.6835 1.55903 96.0787 -86.9352 -92.4839
RightUpLeg  -22.1446 -15.2077 0.609461
RightLeg  30.7824 -4.87639 -3.37645
RightFoot  -7.69629 -0.204272 4.61463
RightToes  0.000482159 0.542163 -0.142577
Spine  45.2815 -0.901149 6.02361
Spine1  -6.03493 2.14886 -4.52425
HEad  -21.9254 0.0873389 -3.07711
LeftShoulder1  10.8076 -16.9267 -46.1315
LeftArm  0.66808 17.4592 -23.8085
LeftForeArm  31.5549 -26.4361 -3.98862
LeftHand  -0.25398 0.0180481 5.50724
RightShoulder  4.39959 10.5217 25.2592
RightArm  -4.90615 15.0073 38.3987
RightForeArm  6.17185 51.1078 13.5077
RightHand  -4.27345 12.1107 -28.2544
LeftUpLeg  -25.5553 5.5286 -1.21375
LeftLeg  29.5738 9.57612 6.17599
LeftFoot  -10.4723 0.0550105 1.02762
LeftToes  1.06246e-005 4.65855e-005 -8.18503e-006
225
root  46.6015 39.0102 1.70009 95.8893 -86.9963 -94.0606
RightUpLeg  -20.0386 -13.0969 -0.571008
RightLeg  33.1661 -7.38574 -5.44188
RightFoot  -4.16496 -0.360655 5.41729
RightToes  0.000482159 0.542163 -0.142577
Spine  43.231 -0.675534 5.99317
Spine1  -5.7906 2.41134 -5.15238
HEad  -18.1748 -0.0983468 -3.19769
LeftShoulder1  10.681 -16.6988 -46.1057
LeftArm  3.34955 18.9738 -23.7297
LeftForeArm  30.8087 -24.0702 -3.57196
LeftHand  -0.25398 0.0180481 5.50724
RightShoulder  4.5112 10.4447 26.2726
RightArm  -2.26316 12.3248 38.6536
RightForeArm  4.92127 48.3043 12.2649
RightHand  -4.25578 12.1414 -28.0807
LeftUpLeg  -20.724 7.10692 -1.21975
LeftLeg  27.3193 8.6227 5.14862
LeftFoot  -11.0519 0.063725 1.07694
LeftToes  1.06246e-005 4.65855e-005 -8.18503e-006
